<?xml version="1.0" standalone="no"?>
<!DOCTYPE svg PUBLIC "-//W3C//DTD SVG 20010904//EN"
 "http://www.w3.org/TR/2001/REC-SVG-20010904/DTD/svg10.dtd">
<svg version="1.0" xmlns="http://www.w3.org/2000/svg"
 width="512.000000pt" height="512.000000pt" viewBox="0 0 512.000000 512.000000"
 preserveAspectRatio="xMidYMid meet">
<metadata>
Created by potrace 1.14, written by Peter Selinger 2001-2017
</metadata>
<g transform="translate(0.000000,512.000000) scale(0.100000,-0.100000)"
fill="#000000" stroke="none">
<path d="M1564 4287 c-63 -65 -116 -107 -126 -101 -6 4 -9 3 -5 -2 8 -14 -20
-47 -34 -38 -7 4 -10 3 -5 -4 3 -6 -5 -22 -20 -35 -24 -23 -26 -29 -20 -77 4
-29 9 -56 11 -60 3 -4 7 -25 10 -46 2 -22 7 -52 11 -67 3 -16 7 -38 9 -50 2
-21 19 -113 30 -167 5 -23 11 -59 19 -115 2 -11 4 -20 6 -20 1 0 3 -11 5 -25
1 -14 6 -41 10 -60 4 -19 8 -44 9 -55 1 -11 5 -33 9 -50 11 -50 24 -120 31
-173 3 -18 8 -37 11 -42 3 -5 0 -12 -6 -16 -8 -5 -8 -8 0 -13 12 -8 18 -30 27
-101 2 -25 9 -59 13 -77 6 -20 5 -35 -3 -44 -8 -9 -8 -10 2 -5 7 4 12 2 13 -6
0 -7 3 -22 5 -33 3 -11 5 -28 5 -38 0 -10 4 -30 9 -43 7 -17 6 -24 -3 -24 -9
0 -8 -3 1 -9 8 -4 12 -17 11 -27 -2 -11 -1 -23 3 -29 10 -16 21 -85 22 -137 1
-25 5 -46 10 -45 5 1 10 -9 11 -23 4 -41 16 -114 21 -122 3 -4 7 -24 9 -45 2
-21 7 -49 10 -63 3 -14 7 -38 10 -55 7 -48 24 -141 32 -175 3 -14 11 -63 17
-105 2 -11 5 -21 6 -22 1 -2 4 -16 5 -33 1 -16 3 -31 5 -32 3 -5 17 -79 26
-143 3 -22 7 -46 10 -54 4 -12 15 -76 16 -91 1 -21 -5 -28 -20 -25 -10 2 -36
5 -58 6 -21 2 -42 8 -46 14 -5 6 -8 6 -8 -2 0 -14 -62 -6 -72 10 -5 9 -8 9 -8
1 0 -11 -6 -11 -145 1 -38 3 -99 8 -135 11 -36 3 -74 7 -85 9 -11 2 -23 4 -26
4 -3 1 -6 7 -6 14 0 16 -9 67 -28 157 -3 14 -8 42 -11 64 -3 21 -8 48 -10 60
-3 11 -7 32 -9 46 -4 26 -12 70 -19 106 -2 12 -7 39 -11 60 -8 52 -14 84 -21
114 -3 14 -7 36 -9 50 -1 14 -8 52 -14 85 -6 33 -13 72 -16 88 -3 15 -8 39
-11 55 -3 15 -6 33 -6 39 -2 17 -18 21 -108 28 -41 3 -97 8 -125 10 -27 3 -81
7 -120 10 -38 3 -87 8 -107 11 -33 4 -41 0 -84 -41 -26 -25 -54 -45 -61 -45
-7 0 -13 -7 -13 -16 0 -10 -5 -14 -16 -10 -8 3 -13 2 -10 -3 6 -9 -81 -101
-96 -101 -9 0 -6 -72 7 -130 3 -14 8 -38 11 -55 2 -16 7 -41 9 -55 9 -47 14
-72 21 -92 5 -16 3 -19 -7 -12 -12 6 -12 5 -1 -8 7 -9 15 -29 17 -45 6 -50 17
-107 31 -173 3 -14 7 -40 10 -59 2 -19 7 -38 10 -42 3 -5 -1 -9 -8 -9 -10 0
-10 -2 -1 -8 7 -5 15 -21 17 -38 7 -42 15 -85 21 -114 3 -14 7 -41 10 -60 3
-19 9 -49 14 -67 5 -17 7 -34 3 -37 -3 -3 1 -7 9 -7 28 -2 76 -7 144 -13 143
-14 244 -23 297 -25 19 -1 37 -55 43 -125 1 -23 5 -48 9 -56 6 -16 13 -51 21
-110 3 -19 8 -46 12 -60 3 -14 7 -34 9 -45 4 -32 15 -79 19 -83 2 -2 23 -5 47
-7 24 -2 75 -7 113 -10 78 -7 127 -11 230 -19 39 -3 88 -8 110 -10 22 -3 76
-7 120 -11 44 -3 100 -8 125 -10 25 -2 84 -7 132 -10 l88 -6 56 53 c173 163
195 188 189 208 -3 11 -8 32 -11 47 -3 16 -9 52 -14 82 -6 30 -10 56 -10 58 0
5 142 -7 151 -13 9 -5 56 35 181 158 94 91 94 91 73 168 -2 8 -6 31 -9 50 -3
19 -8 49 -12 65 -11 54 -14 79 -17 120 -1 22 -6 43 -11 46 -5 4 -10 29 -11 55
-2 27 -6 57 -10 66 -4 9 -4 22 0 28 3 5 2 10 -3 10 -5 0 -9 6 -9 13 0 6 -4 26
-7 42 -4 17 -9 41 -11 55 -2 14 -6 43 -9 65 -4 22 -9 54 -13 70 -4 17 -8 37
-10 45 -2 8 -5 34 -7 56 -2 23 -6 46 -10 52 -3 5 -8 25 -11 43 -4 34 -11 73
-20 119 -13 62 -16 77 -21 105 -2 17 -7 41 -9 55 -3 14 -7 36 -10 50 -3 14 -7
39 -10 55 -2 17 -7 41 -10 55 -3 14 -8 45 -11 70 -3 25 -8 47 -9 50 -2 3 -6
26 -10 50 -3 25 -11 65 -17 90 -5 25 -12 63 -14 85 -3 22 -9 56 -14 75 -5 19
-11 53 -15 75 -3 23 -8 52 -10 65 -3 14 -8 40 -11 59 -3 18 -8 43 -10 55 -2
11 -7 37 -10 56 -4 19 -9 44 -11 55 -2 11 -6 34 -8 50 -3 17 -7 41 -10 55 -3
14 -8 40 -11 59 -7 43 -12 69 -20 104 -3 16 -7 38 -9 50 -1 12 -7 49 -13 82
-6 33 -14 74 -17 90 -3 17 -8 44 -11 60 -3 17 -8 41 -10 55 -3 14 -6 34 -9 45
-2 11 -4 28 -4 37 -1 10 -9 22 -19 27 -18 10 -48 13 -337 35 -44 3 -96 8 -115
11 -29 4 -40 -1 -66 -28z"/>
<path d="M3768 4272 c-20 -20 -75 -73 -122 -117 l-86 -79 5 -46 c3 -25 7 -61
9 -81 1 -19 5 -39 8 -45 3 -5 9 -25 12 -44 3 -19 8 -45 10 -56 2 -12 7 -37 10
-55 12 -72 25 -145 31 -169 3 -14 8 -38 10 -55 2 -16 6 -41 9 -55 3 -14 8 -45
11 -70 4 -24 8 -47 11 -51 2 -4 7 -29 10 -56 5 -43 14 -94 27 -148 4 -17 8
-40 22 -140 2 -11 4 -20 5 -20 1 0 3 -9 5 -20 1 -11 6 -33 10 -50 4 -16 7 -38
6 -48 0 -10 4 -30 9 -43 7 -17 6 -24 -3 -24 -9 0 -9 -2 1 -9 7 -4 15 -21 17
-37 2 -16 6 -42 9 -59 3 -16 8 -46 11 -65 7 -42 22 -125 40 -217 10 -47 21
-113 30 -177 2 -15 7 -36 10 -46 5 -17 8 -32 21 -120 2 -18 7 -36 9 -39 3 -2
-1 -11 -8 -19 -9 -13 -9 -14 1 -8 12 7 13 4 16 -49 1 -17 5 -35 8 -40 3 -6 9
-27 12 -49 4 -21 9 -42 11 -46 3 -5 0 -12 -6 -16 -8 -5 -8 -9 1 -14 7 -4 14
-23 16 -41 2 -19 6 -45 9 -59 4 -14 8 -43 9 -66 2 -22 8 -50 14 -61 6 -11 9
-22 7 -24 -2 -3 0 -21 4 -42 10 -40 8 -41 -44 -38 -16 1 -33 7 -37 14 -5 7 -8
8 -8 1 0 -6 -15 -10 -37 -8 -21 2 -38 3 -38 4 0 1 -27 3 -60 5 -33 2 -91 6
-130 9 -38 4 -99 9 -135 12 -114 8 -113 8 -124 79 -4 22 -8 47 -11 55 -2 8 -6
31 -9 50 -3 19 -8 45 -10 56 -2 12 -7 37 -10 55 -3 19 -8 48 -11 64 -3 17 -10
55 -15 85 -6 30 -12 66 -15 80 -3 14 -7 40 -10 59 -2 18 -7 41 -10 51 -5 17
-8 29 -19 109 -3 18 -7 40 -10 50 -3 9 -8 34 -11 56 -3 23 -8 52 -11 65 -3 14
-6 31 -6 37 -2 17 -18 21 -108 28 -41 3 -95 7 -120 10 -25 2 -81 7 -125 10
-44 3 -95 8 -113 11 -27 5 -38 -1 -75 -35 -97 -94 -150 -141 -158 -141 -5 0
-9 -6 -9 -14 0 -13 -26 -31 -41 -28 -3 1 -2 -19 2 -44 5 -25 8 -48 8 -52 -1
-4 -1 -9 1 -12 1 -3 3 -16 6 -30 2 -14 7 -36 11 -50 3 -14 5 -29 4 -34 -1 -4
3 -22 8 -40 6 -17 13 -49 15 -71 3 -22 8 -52 11 -67 5 -27 7 -39 22 -118 3
-19 7 -50 7 -67 1 -18 5 -33 10 -33 5 0 7 -3 4 -6 -4 -3 -2 -20 3 -37 5 -18
11 -48 14 -67 5 -33 8 -54 20 -110 3 -14 7 -41 10 -60 3 -19 9 -49 14 -67 5
-17 7 -34 3 -37 -6 -6 -4 -7 48 -11 173 -13 211 -18 227 -28 6 -4 14 -3 17 1
3 5 17 7 31 5 15 -3 22 -10 18 -17 -5 -8 -3 -8 8 0 8 7 28 10 44 9 17 -2 40
-3 52 -4 21 -1 35 -24 39 -63 1 -10 2 -19 4 -20 1 -2 3 -14 5 -28 7 -52 14
-96 20 -120 3 -14 7 -39 9 -57 2 -17 7 -36 10 -42 4 -6 1 -11 -6 -11 -9 0 -10
-2 -1 -8 6 -4 14 -27 18 -52 9 -61 27 -86 62 -87 15 0 62 -3 103 -7 104 -9
264 -23 365 -31 28 -2 84 -7 125 -11 41 -3 91 -8 110 -9 19 -2 76 -6 126 -10
l91 -7 58 53 c32 30 89 84 126 120 l68 66 -10 43 c-5 23 -11 54 -13 69 -2 14
-7 43 -11 64 l-6 37 73 -6 c40 -3 76 -8 80 -10 9 -6 63 42 180 157 70 70 86
91 83 110 -3 13 -7 35 -10 49 -2 14 -7 39 -10 55 -3 17 -7 41 -10 55 -3 14 -7
40 -10 59 -2 18 -7 41 -9 50 -3 9 -8 34 -11 56 -3 23 -8 52 -10 65 -3 14 -8
40 -11 59 -3 18 -8 43 -10 55 -2 11 -7 36 -10 55 -3 18 -8 43 -10 55 -3 11 -7
32 -9 46 -2 14 -14 77 -25 140 -12 63 -23 126 -25 140 -4 26 -12 70 -19 106
-2 12 -7 39 -10 60 -3 22 -8 50 -11 64 -7 34 -13 65 -25 130 -6 30 -12 66 -15
80 -3 14 -8 43 -10 64 -3 21 -7 42 -9 45 -2 3 -7 31 -11 61 -4 30 -8 57 -10
60 -2 3 -6 24 -9 46 -7 42 -12 73 -21 114 -8 40 -14 72 -20 110 -3 20 -8 47
-11 60 -3 14 -7 37 -9 52 -4 25 -20 118 -29 164 -2 12 -7 37 -10 55 -3 19 -8
45 -11 59 -6 28 -12 63 -20 113 -5 27 -31 169 -40 218 -2 9 -6 32 -9 50 -3 19
-8 44 -10 55 -2 12 -7 37 -10 55 -3 19 -9 48 -12 64 -4 17 -7 36 -7 42 0 17
-17 21 -112 28 -44 3 -100 8 -125 10 -25 2 -79 7 -120 10 -41 3 -91 8 -110 10
-30 3 -41 -2 -72 -33z"/>
<path d="M3625 3279 c-3 -4 2 -6 10 -5 21 3 28 13 10 13 -9 0 -18 -4 -20 -8z"/>
<path d="M1436 2753 c-6 -14 -5 -15 5 -6 7 7 10 15 7 18 -3 3 -9 -2 -12 -12z"/>
<path d="M3670 2720 c0 -5 5 -10 11 -10 5 0 7 5 4 10 -3 6 -8 10 -11 10 -2 0
-4 -4 -4 -10z"/>
<path d="M1506 2278 c3 -5 10 -6 15 -3 13 9 11 12 -6 12 -8 0 -12 -4 -9 -9z"/>
<path d="M1633 2275 c0 -8 4 -12 9 -9 5 3 6 10 3 15 -9 13 -12 11 -12 -6z"/>
<path d="M3836 1673 c-6 -14 -5 -15 5 -6 7 7 10 15 7 18 -3 3 -9 -2 -12 -12z"/>
<path d="M3955 1521 c-3 -5 -2 -12 3 -15 5 -3 9 1 9 9 0 17 -3 19 -12 6z"/>
</g>
</svg>
